{
  "accessors": [
    {
      "bufferView": 0,
      "componentType": 5126,
      "count": 43898,
      "max": [
        586.2160034179688,
        422.08099365234375,
        773.8438110351563
      ],
      "min": [
        -681.1481323242188,
        2.637481212615967,
        -593.3106689453125
      ],
      "name": "positions",
      "type": "VEC3"
    },
    {
      "bufferView": 1,
      "componentType": 5125,
      "count": 263598,
      "name": "pos_index",
      "type": "SCALAR"
    },
    {
      "bufferView": 2,
      "componentType": 5126,
      "count": 43898,
      "name": "normals",
      "type": "VEC3"
    }
  ],
  "asset": {
    "version": "2.0"
  },
  "bufferViews": [
    {
      "buffer": 0,
      "byteLength": 526776,
      "name": "positions",
      "target": 34962
    },
    {
      "buffer": 1,
      "byteLength": 1054392,
      "name": "pos_index",
      "target": 34963
    },
    {
      "buffer": 2,
      "byteLength": 526776,
      "name": "normals",
      "target": 34962
    }
  ],
  "buffers": [
    {
      "byteLength": 526776,
      "name": "positions",
      "uri": "data:application/octet-stream;base64,"
    },
    {
      "byteLength": 1054392,
      "name": "pos_index",
      "uri": "data:application/octet-stream;base64,"
    },
    {
      "byteLength": 526776,
      "name": "normals",
      "uri": "data:application/octet-stream;base64,"
    }
  ],
  "extensionsUsed": [
    "KHR_materials_transmission"
  ],
  "meshes": [
    {
      "name": "Area (1)",
      "primitives": [
        {
          "attributes": {
            "NORMAL": 2,
            "POSITION": 0
          },
          "indices": 1,
          "mode": 4
        }
      ]
    }
  ],
  "nodes": [
    {
      "mesh": 0,
      "name": "Area (1)"
    }
  ],
  "scene": 0,
  "scenes": [
    {
      "nodes": [
        0
      ]
    }
  ]
}
